<svg width="51" height="44" viewBox="0 0 51 44" fill="none" xmlns="http://www.w3.org/2000/svg">
<path d="M16.74 43.3C13.54 43.3 10.68 42.44 8.16 40.72C5.68 38.96 3.74 36.48 2.34 33.28C0.98 30.08 0.3 26.32 0.3 22C0.3 17.68 0.98 13.92 2.34 10.72C3.74 7.52 5.68 5.06 8.16 3.34C10.68 1.58 13.54 0.699997 16.74 0.699997C19.94 0.699997 22.78 1.58 25.26 3.34C27.78 5.06 29.72 7.52 31.08 10.72C32.48 13.92 33.18 17.68 33.18 22C33.18 26.32 32.48 30.08 31.08 33.28C29.72 36.48 27.78 38.96 25.26 40.72C22.78 42.44 19.94 43.3 16.74 43.3ZM16.74 40.48C19.38 40.48 21.7 39.76 23.7 38.32C25.74 36.84 27.32 34.72 28.44 31.96C29.56 29.16 30.12 25.84 30.12 22C30.12 18.16 29.56 14.86 28.44 12.1C27.32 9.3 25.74 7.18 23.7 5.74C21.7 4.26 19.38 3.52 16.74 3.52C14.1 3.52 11.76 4.26 9.72 5.74C7.72 7.18 6.16 9.3 5.04 12.1C3.92 14.86 3.36 18.16 3.36 22C3.36 25.84 3.92 29.16 5.04 31.96C6.16 34.72 7.72 36.84 9.72 38.32C11.76 39.76 14.1 40.48 16.74 40.48ZM50.2936 0.999997V43H47.2336V3.76H36.9736V0.999997H50.2936Z" fill="#1E0606" fill-opacity="0.05"/>
</svg>
