<svg width="9" height="12" viewBox="0 0 9 12" fill="none" xmlns="http://www.w3.org/2000/svg">
<path d="M8.992 9.888V12H0.528V10.32L4.848 6.24C5.30667 5.80267 5.616 5.42933 5.776 5.12C5.936 4.8 6.016 4.48533 6.016 4.176C6.016 3.728 5.86133 3.38667 5.552 3.152C5.25333 2.90667 4.81067 2.784 4.224 2.784C3.73333 2.784 3.29067 2.88 2.896 3.072C2.50133 3.25333 2.17067 3.53067 1.904 3.904L0.016 2.688C0.453333 2.03733 1.056 1.53067 1.824 1.168C2.592 0.794666 3.472 0.608 4.464 0.608C5.296 0.608 6.02133 0.746666 6.64 1.024C7.26933 1.29067 7.75467 1.67467 8.096 2.176C8.448 2.66667 8.624 3.248 8.624 3.92C8.624 4.528 8.496 5.09867 8.24 5.632C7.984 6.16533 7.488 6.77333 6.752 7.456L4.176 9.888H8.992Z" fill="#1E0606"/>
</svg>
