<svg width="10" height="13" viewBox="0 0 10 13" fill="none" xmlns="http://www.w3.org/2000/svg">
<path d="M6.856 5.36C7.83733 5.52 8.58933 5.888 9.112 6.464C9.63467 7.02933 9.896 7.73333 9.896 8.576C9.896 9.22667 9.72533 9.82933 9.384 10.384C9.04267 10.928 8.52 11.3653 7.816 11.696C7.12267 12.0267 6.26933 12.192 5.256 12.192C4.46667 12.192 3.688 12.0907 2.92 11.888C2.16267 11.6747 1.51733 11.376 0.984 10.992L1.992 9.008C2.41867 9.328 2.90933 9.57867 3.464 9.76C4.02933 9.93067 4.60533 10.016 5.192 10.016C5.84267 10.016 6.35467 9.89333 6.728 9.648C7.10133 9.392 7.288 9.03467 7.288 8.576C7.288 7.65867 6.58933 7.2 5.192 7.2H4.008V5.488L6.312 2.88H1.544V0.799999H9.384V2.48L6.856 5.36Z" fill="#1E0606"/>
</svg>
