<svg width="58" height="109" viewBox="0 0 58 109" fill="none" xmlns="http://www.w3.org/2000/svg">
<path d="M57.8826 8.68256C57.6407 10.1325 57.1569 12.0658 56.1893 13.9991C56.1893 13.9991 55.4636 15.4491 54.0122 17.6241C53.7703 18.1074 53.2865 18.8323 52.8027 19.5573C51.1095 22.4572 48.6905 26.3238 46.2715 30.4321C44.0944 34.057 41.9174 37.9236 39.4984 42.0318C35.6281 48.7983 31.5158 56.0482 28.1292 62.573C24.5008 69.5812 21.598 75.381 20.3886 79.2476C18.9372 83.8392 22.8075 94.4722 23.7751 96.8888C24.017 97.1305 24.017 97.3722 24.017 97.3722C25.4684 99.5471 27.4036 101.48 29.3387 103.414C32.2415 106.555 34.4186 108.73 31.2739 108.972L28.8549 108.005L24.5008 106.314L13.1317 101.964C11.1965 101.239 9.7451 99.5472 9.26131 97.6139L7.56802 91.3307L4.90716 98.5805L0.794922 96.8888C4.42337 87.7057 0.794911 84.3225 9.98699 74.8978C12.6479 72.2395 16.0344 52.1816 20.1467 36.7153C21.598 30.9154 23.2913 25.8405 24.9846 22.4573C26.6779 19.074 28.3711 16.4157 30.3063 13.7575C30.5482 13.2741 31.032 12.7908 31.2739 12.3075C33.9348 8.68256 36.5956 5.78263 38.2889 3.84934C39.9822 2.15771 40.9498 1.43273 40.9498 1.43273C49.4162 -1.4672 59.092 -0.0172372 57.8826 8.68256Z" fill="#F0A073"/>
<path d="M9.50067 74.8979C9.50067 74.8979 9.98447 74.8979 10.2264 75.1396C12.6453 76.5895 14.0967 79.2478 14.3386 81.9061L15.0643 88.9143C15.3062 92.0559 17.4833 94.7142 20.386 95.6808L23.7726 96.8891C23.7726 97.1308 23.7726 97.1308 23.7726 97.1308C27.8848 102.931 35.8674 108.247 30.7876 108.489L12.6453 101.481C10.7102 100.756 9.25876 99.0641 8.77497 97.1308L7.0817 90.8476L4.42085 98.0974L0.308594 96.4058C3.93704 87.706 0.308601 84.0811 9.50067 74.8979Z" fill="#C21E1D"/>
</svg>
